<?xml version="1.0" standalone="no"?>
<!DOCTYPE svg PUBLIC "-//W3C//DTD SVG 20010904//EN"
 "http://www.w3.org/TR/2001/REC-SVG-20010904/DTD/svg10.dtd">
<svg version="1.0" xmlns="http://www.w3.org/2000/svg"
 width="500.000000pt" height="500.000000pt" viewBox="0 0 500.000000 500.000000"
 preserveAspectRatio="xMidYMid meet">

<g transform="translate(0.000000,500.000000) scale(0.100000,-0.100000)"
fill="#000000" stroke="none">
<path d="M1890 2697 c-28 -14 -50 -51 -50 -84 0 -12 -9 -27 -20 -33 -11 -6
-20 -20 -20 -30 0 -13 7 -20 20 -20 19 0 20 -7 20 -115 l0 -115 40 0 40 0 0
115 0 115 35 0 c32 0 35 2 35 30 0 28 -3 30 -36 30 -31 0 -35 3 -32 23 2 17
10 23 40 25 30 3 38 8 46 31 10 27 8 29 -20 35 -45 9 -70 7 -98 -7z"/>
<path d="M2099 2699 c-28 -11 -49 -46 -49 -84 0 -14 -8 -29 -20 -35 -11 -6
-20 -20 -20 -30 0 -13 7 -20 20 -20 19 0 20 -7 20 -115 l0 -115 40 0 40 0 0
115 0 115 35 0 c32 0 35 2 35 30 0 28 -3 30 -36 30 -31 0 -35 3 -32 23 2 17
10 23 40 25 29 3 37 8 43 29 3 14 4 28 1 30 -10 11 -92 12 -117 2z"/>
<path d="M1340 2482 c0 -213 -2 -222 -52 -222 -25 0 -28 -3 -28 -35 0 -35 0
-35 46 -35 39 0 51 5 80 34 l34 34 0 211 0 211 -40 0 -40 0 0 -198z"/>
<path d="M1600 2593 c-71 -14 -105 -71 -98 -164 4 -56 8 -65 41 -95 42 -39 80
-45 175 -29 28 5 32 10 32 36 0 29 -1 30 -37 22 -79 -16 -133 4 -133 49 0 16
9 18 90 18 l90 0 0 40 c0 23 -7 54 -15 69 -20 39 -89 65 -145 54z m72 -70 c33
-30 23 -43 -37 -43 -59 0 -68 10 -38 42 20 22 51 23 75 1z"/>
<path d="M2317 2590 c-59 -18 -90 -68 -90 -145 0 -100 50 -147 154 -146 71 0
99 13 99 47 0 24 -2 24 -37 17 -87 -18 -133 -1 -133 49 0 16 10 18 90 18 l90
0 0 38 c0 20 -6 48 -13 61 -26 51 -100 80 -160 61z m87 -72 c24 -34 20 -38
-39 -38 -59 0 -70 13 -39 44 22 23 60 20 78 -6z"/>
<path d="M2666 2575 c-37 -25 -38 -25 -43 -5 -4 14 -14 20 -34 20 l-29 0 0
-145 0 -145 40 0 40 0 0 94 c0 87 2 96 22 110 12 9 35 16 50 16 24 0 28 4 28
30 0 17 1 33 3 38 6 18 -43 10 -77 -13z"/>
<path d="M2843 2589 c-18 -5 -39 -19 -48 -31 -34 -50 -8 -99 74 -138 83 -38
62 -82 -30 -61 -60 14 -59 15 -59 -18 0 -35 16 -42 93 -42 89 0 127 25 127 86
0 43 -19 65 -75 90 -59 27 -74 43 -54 56 13 9 38 7 85 -6 29 -9 52 40 26 54
-28 15 -105 21 -139 10z"/>
<path d="M3149 2591 c-79 -24 -103 -64 -97 -159 4 -59 7 -67 41 -98 33 -31 42
-34 98 -34 56 0 64 3 94 33 79 79 48 229 -53 257 -42 11 -47 11 -83 1z m81
-76 c18 -22 23 -96 8 -125 -17 -31 -62 -38 -89 -14 -25 22 -27 109 -2 136 20
22 66 24 83 3z"/>
<path d="M3505 2580 c-47 -24 -45 -24 -45 -5 0 10 -11 15 -35 15 l-35 0 0
-145 0 -145 40 0 40 0 1 78 c0 103 15 146 52 150 50 6 57 -10 57 -124 l0 -104
40 0 40 0 0 116 c0 63 -5 124 -11 136 -10 19 -65 48 -92 48 -7 0 -30 -9 -52
-20z"/>
</g>
</svg>
